<svg xmlns="http://www.w3.org/2000/svg" width="17.4" height="18.05" viewBox="0 0 17.4 18.05"><title>i-brochure</title><g id="Слой_2" data-name="Слой 2"><g id="Ebene_1" data-name="Ebene 1"><path d="M16.9.15a.91.91,0,0,0-1,0A33.42,33.42,0,0,1,12.2,2,30.88,30.88,0,0,1,8.7,3,30.88,30.88,0,0,1,5.2,2,15.74,15.74,0,0,1,1.5.15a1.7,1.7,0,0,0-1,0A1.05,1.05,0,0,0,0,1V14a.89.89,0,0,0,.5.8,28.23,28.23,0,0,0,4,2.1,17.16,17.16,0,0,0,4,1.1h.4a25.57,25.57,0,0,0,4-1.1,28.23,28.23,0,0,0,4-2.1,1,1,0,0,0,.5-.8V1A1.05,1.05,0,0,0,16.9.15ZM2,13.45V2.75c.7.4,1.6.8,2.5,1.2a22.21,22.21,0,0,0,3.2,1v10.9A17.66,17.66,0,0,1,5.2,15,31.49,31.49,0,0,1,2,13.45Zm13.4,0A31.49,31.49,0,0,1,12.2,15c-.9.3-1.8.6-2.5.8V4.95a18.93,18.93,0,0,0,3.2-1,14.52,14.52,0,0,0,2.5-1.2Z"/></g></g></svg>