<svg xmlns="http://www.w3.org/2000/svg" width="19.92" height="20" viewBox="0 0 19.92 20"><title>i-menu</title><g id="Слой_2" data-name="Слой 2"><g id="Ebene_1" data-name="Ebene 1"><path d="M19.4,0H.6A.67.67,0,0,0,0,.7V3.2a.67.67,0,0,0,.6.7H19.3a.67.67,0,0,0,.6-.7V.7A.54.54,0,0,0,19.4,0Z"/><path d="M19.4,8H.6c-.3,0-.6.4-.6.8v2.5c0,.3.3.7.6.7H19.3a.67.67,0,0,0,.6-.7V8.8A.64.64,0,0,0,19.4,8Z"/><path d="M19.4,16.1H.6a.67.67,0,0,0-.6.7v2.5a.67.67,0,0,0,.6.7H19.3a.67.67,0,0,0,.6-.7V16.8A.54.54,0,0,0,19.4,16.1Z"/></g></g></svg>