<svg xmlns="http://www.w3.org/2000/svg" width="94" height="94" viewBox="0 0 94 94"><defs><style>.cls-1{fill:#00b1eb;}</style></defs><title>icon-pencil</title><g id="Слой_2" data-name="Слой 2"><g id="Слой_1-2" data-name="Слой 1"><path class="cls-1" d="M93.34,20.59,73.41.66a2.24,2.24,0,0,0-3.17,0L58,12.91l0,0,0,0L6.28,64.61h0l0,0-.07.09A2.22,2.22,0,0,0,6,65l-.08.15a2.36,2.36,0,0,0-.12.23,2.27,2.27,0,0,0-.07.23c0,.06,0,.11-.06.17L.05,91.28a2.24,2.24,0,0,0,2.67,2.66L28.2,88.37h0l.14,0,.27-.09.19-.1L29,88l.18-.15.14-.11L81.06,36h0L93.34,23.75A2.24,2.24,0,0,0,93.34,20.59Zm-33.8-2.9,5.54,5.54L16.53,71.78,11,66.24ZM76.31,34.45,27.76,83l-8.07-8.07L68.25,26.39ZM9.13,70.71l5.8,5.8h0l8.33,8.33-18.11,4ZM79.48,31.29l-9.65-9.64h0l-7.12-7.12L71.83,5.4,88.59,22.17Z"/></g></g></svg>