<svg xmlns="http://www.w3.org/2000/svg" width="17.4" height="18" viewBox="0 0 17.4 18"><title>i-save</title><g id="Слой_2" data-name="Слой 2"><g id="Ebene_1" data-name="Ebene 1"><path d="M17,10.8H15.2a.43.43,0,0,0-.4.4v.2c0,1.3-.1,3.1-.6,3.6s-2.1.5-4.3.5H7.7c-2.2,0-3.8,0-4.3-.5s-.6-2.4-.6-3.6v-.2a.43.43,0,0,0-.4-.4H.4a.43.43,0,0,0-.4.4v.2c0,2.4.2,4.3,1.4,5.4S4.7,18,7.6,18h3.1c2.5,0,4.1-.1,5.3-1.2s1.4-3,1.4-5.4v-.2A.37.37,0,0,0,17,10.8Z"/><path d="M8.4,11.3c.1.2.4.2.6,0l4.2-4.9a.3.3,0,0,0-.2-.5H10.6L10.3.4A.46.46,0,0,0,9.8,0H7.6a.66.66,0,0,0-.5.4L6.8,5.9H4.4a.28.28,0,0,0-.2.5Z"/></g></g></svg>