<svg xmlns="http://www.w3.org/2000/svg" width="94" height="94" viewBox="0 0 94 94"><defs><style>.cls-1{fill:#00b1eb}</style></defs><title>icon-pencil</title><g id="Слой_2" data-name="Слой 2"><path class="cls-1" d="M93.34 20.59L73.41.66a2.24 2.24 0 0 0-3.17 0L58 12.91 6.28 64.61l-.07.09A2.22 2.22 0 0 0 6 65l-.08.15a2.36 2.36 0 0 0-.12.23 2.27 2.27 0 0 0-.07.23c0 .06 0 .11-.06.17L.05 91.28a2.24 2.24 0 0 0 2.67 2.66l25.48-5.57h.14l.27-.09.19-.1.2-.18.18-.15.14-.11L81.06 36l12.28-12.25a2.24 2.24 0 0 0 0-3.16zm-33.8-2.9l5.54 5.54-48.55 48.55L11 66.24zm16.77 16.76L27.76 83l-8.07-8.07 48.56-48.54zM9.13 70.71l5.8 5.8 8.33 8.33-18.11 4zm70.35-39.42l-9.65-9.64-7.12-7.12 9.12-9.13 16.76 16.77z" id="Слой_1-2" data-name="Слой 1"/></g></svg>