<svg width="22" height="14" viewBox="0 0 22 14" xmlns="http://www.w3.org/2000/svg" xmlns:xlink="http://www.w3.org/1999/xlink"><title>055CA42B-D0AE-495F-A2F7-3EF5CA4FEC2E</title><defs><path id="a" d="M20.343 13.956H0V0h20.343v13.956z"/></defs><g transform="translate(.737 -.105)" fill="none" fill-rule="evenodd"><mask id="b" fill="#fff"><use xlink:href="#a"/></mask><path d="M19.262 0c-.27.01-.527.127-.715.328L7.773 11.446 1.748 6.42a1.017 1.017 0 0 0-1.469.054 1.097 1.097 0 0 0 .17 1.613l6.755 5.631a1.016 1.016 0 0 0 1.389-.075L20.025 1.844c.413-.411.425-1.09.026-1.517a1.024 1.024 0 0 0-.79-.326" fill="#FFF" mask="url(#b)"/></g></svg>