<svg xmlns="http://www.w3.org/2000/svg"><defs><style>.cls-1{fill:#00b1eb;}</style><style>.cls-1{fill:#00b1eb;}</style><style>.cls-1{fill:#cfd7d9; background-color:#ffffff;}</style></defs><symbol id="i-arrow" viewBox="0 0 13.08 8.43"><title>i-arrow</title><g id="&#x421;&#x43B;&#x43E;&#x439;_2" data-name="&#x421;&#x43B;&#x43E;&#x439; 2"><g id="Ebene_1" data-name="Ebene 1"><path d="M12.87,2.18l-6.1,6.1a.61.61,0,0,1-.8,0L.08,2.18a.19.19,0,0,1,0-.3L1.87.07a.19.19,0,0,1,.3,0l4.4,4.4L11,.08a.19.19,0,0,1,.3,0l1.8,1.8C13,2,13,2.08,12.87,2.18Z"/></g></g></symbol><symbol id="i-brochure" viewBox="0 0 17.4 18.05"><title>i-brochure</title><g id="&#x421;&#x43B;&#x43E;&#x439;_2" data-name="&#x421;&#x43B;&#x43E;&#x439; 2"><g id="Ebene_1" data-name="Ebene 1"><path d="M16.9.15a.91.91,0,0,0-1,0A33.42,33.42,0,0,1,12.2,2,30.88,30.88,0,0,1,8.7,3,30.88,30.88,0,0,1,5.2,2,15.74,15.74,0,0,1,1.5.15a1.7,1.7,0,0,0-1,0A1.05,1.05,0,0,0,0,1V14a.89.89,0,0,0,.5.8,28.23,28.23,0,0,0,4,2.1,17.16,17.16,0,0,0,4,1.1h.4a25.57,25.57,0,0,0,4-1.1,28.23,28.23,0,0,0,4-2.1,1,1,0,0,0,.5-.8V1A1.05,1.05,0,0,0,16.9.15ZM2,13.45V2.75c.7.4,1.6.8,2.5,1.2a22.21,22.21,0,0,0,3.2,1v10.9A17.66,17.66,0,0,1,5.2,15,31.49,31.49,0,0,1,2,13.45Zm13.4,0A31.49,31.49,0,0,1,12.2,15c-.9.3-1.8.6-2.5.8V4.95a18.93,18.93,0,0,0,3.2-1,14.52,14.52,0,0,0,2.5-1.2Z"/></g></g></symbol><symbol id="i-close" viewBox="0 0 20.02 19.9"><title>i-close</title><g id="&#x421;&#x43B;&#x43E;&#x439;_2" data-name="&#x421;&#x43B;&#x43E;&#x439; 2"><g id="Ebene_1" data-name="Ebene 1"><path d="M13.07,9.95l6.8-7.1a.48.48,0,0,0,0-.7l-2-2a.48.48,0,0,0-.7,0L10,6.95,2.87.15a.48.48,0,0,0-.7,0l-2,2a.62.62,0,0,0-.1.7L7,9.95l-6.8,7.1a.48.48,0,0,0,0,.7l2,2a.48.48,0,0,0,.7,0L10,13l7.1,6.8a.48.48,0,0,0,.7,0l2-2a.48.48,0,0,0,0-.7Z"/></g></g></symbol><symbol id="i-location" viewBox="0 0 9.4 12.97"><title>i-location</title><g id="&#x421;&#x43B;&#x43E;&#x439;_2" data-name="&#x421;&#x43B;&#x43E;&#x439; 2"><g id="Ebene_1" data-name="Ebene 1"><path d="M4.7,0C.9,0,0,.9,0,4.7,0,8,3.7,12,4.5,12.9a.3.3,0,0,0,.4,0c.9-.9,4.5-5,4.5-8.2C9.4.9,8.5,0,4.7,0Zm0,5.6A1.37,1.37,0,0,1,3.3,4.2,1.37,1.37,0,0,1,4.7,2.8,1.37,1.37,0,0,1,6.1,4.2,1.37,1.37,0,0,1,4.7,5.6Z"/></g></g></symbol><symbol id="i-menu" viewBox="0 0 19.92 20"><title>i-menu</title><g id="&#x421;&#x43B;&#x43E;&#x439;_2" data-name="&#x421;&#x43B;&#x43E;&#x439; 2"><g id="Ebene_1" data-name="Ebene 1"><path d="M19.4,0H.6A.67.67,0,0,0,0,.7V3.2a.67.67,0,0,0,.6.7H19.3a.67.67,0,0,0,.6-.7V.7A.54.54,0,0,0,19.4,0Z"/><path d="M19.4,8H.6c-.3,0-.6.4-.6.8v2.5c0,.3.3.7.6.7H19.3a.67.67,0,0,0,.6-.7V8.8A.64.64,0,0,0,19.4,8Z"/><path d="M19.4,16.1H.6a.67.67,0,0,0-.6.7v2.5a.67.67,0,0,0,.6.7H19.3a.67.67,0,0,0,.6-.7V16.8A.54.54,0,0,0,19.4,16.1Z"/></g></g></symbol><symbol id="i-more" viewBox="0 0 34 8.2"><title>i-more</title><g id="&#x421;&#x43B;&#x43E;&#x439;_2" data-name="&#x421;&#x43B;&#x43E;&#x439; 2"><g id="Ebene_1" data-name="Ebene 1"><path d="M4.1,0C.8,0,0,.9,0,4.1S.8,8.2,4.1,8.2s4.1-.8,4.1-4.1S7.4,0,4.1,0Z"/><path d="M17,0c-3.3,0-4.1.8-4.1,4.1s.8,4.1,4.1,4.1,4.1-.8,4.1-4.1S20.3,0,17,0Z"/><path d="M29.9,0c-3.3,0-4.1.8-4.1,4.1s.8,4.1,4.1,4.1S34,7.4,34,4.1,33.2,0,29.9,0Z"/></g></g></symbol><symbol id="i-pencil" viewBox="0 0 94 94"><title>icon-pencil</title><g id="&#x421;&#x43B;&#x43E;&#x439;_2" data-name="&#x421;&#x43B;&#x43E;&#x439; 2"><g id="&#x421;&#x43B;&#x43E;&#x439;_1-2" data-name="&#x421;&#x43B;&#x43E;&#x439; 1"><path class="cls-1" d="M93.34,20.59,73.41.66a2.24,2.24,0,0,0-3.17,0L58,12.91l0,0,0,0L6.28,64.61h0l0,0-.07.09A2.22,2.22,0,0,0,6,65l-.08.15a2.36,2.36,0,0,0-.12.23,2.27,2.27,0,0,0-.07.23c0,.06,0,.11-.06.17L.05,91.28a2.24,2.24,0,0,0,2.67,2.66L28.2,88.37h0l.14,0,.27-.09.19-.1L29,88l.18-.15.14-.11L81.06,36h0L93.34,23.75A2.24,2.24,0,0,0,93.34,20.59Zm-33.8-2.9,5.54,5.54L16.53,71.78,11,66.24ZM76.31,34.45,27.76,83l-8.07-8.07L68.25,26.39ZM9.13,70.71l5.8,5.8h0l8.33,8.33-18.11,4ZM79.48,31.29l-9.65-9.64h0l-7.12-7.12L71.83,5.4,88.59,22.17Z"/></g></g></symbol><symbol id="i-ruble" viewBox="0 0 63.1 75.9"><title>i-ruble</title><g id="&#x421;&#x43B;&#x43E;&#x439;_2" data-name="&#x421;&#x43B;&#x43E;&#x439; 2"><g id="&#x421;&#x43B;&#x43E;&#x439;_1-2" data-name="&#x421;&#x43B;&#x43E;&#x439; 1"><path class="cls-1" d="M36.7,46.37c14.57,0,26.4-10.39,26.4-23.18S51.27,0,36.7,0H9.86V36.75H0v9.62H9.86v8H0V64H9.86V75.9h11V64H45.68V54.35H20.81v-8ZM20.81,9.62H31.44c13.8,0,20.7,6.06,20.7,13.56S45.24,36.75,36.7,36.75H20.81Z"/></g></g></symbol><symbol id="i-save" viewBox="0 0 17.4 18"><title>i-save</title><g id="&#x421;&#x43B;&#x43E;&#x439;_2" data-name="&#x421;&#x43B;&#x43E;&#x439; 2"><g id="Ebene_1" data-name="Ebene 1"><path d="M17,10.8H15.2a.43.43,0,0,0-.4.4v.2c0,1.3-.1,3.1-.6,3.6s-2.1.5-4.3.5H7.7c-2.2,0-3.8,0-4.3-.5s-.6-2.4-.6-3.6v-.2a.43.43,0,0,0-.4-.4H.4a.43.43,0,0,0-.4.4v.2c0,2.4.2,4.3,1.4,5.4S4.7,18,7.6,18h3.1c2.5,0,4.1-.1,5.3-1.2s1.4-3,1.4-5.4v-.2A.37.37,0,0,0,17,10.8Z"/><path d="M8.4,11.3c.1.2.4.2.6,0l4.2-4.9a.3.3,0,0,0-.2-.5H10.6L10.3.4A.46.46,0,0,0,9.8,0H7.6a.66.66,0,0,0-.5.4L6.8,5.9H4.4a.28.28,0,0,0-.2.5Z"/></g></g></symbol><symbol id="i-slider" viewBox="0 0 13.92 22.1"><title>i-slider</title><g id="&#x421;&#x43B;&#x43E;&#x439;_2" data-name="&#x421;&#x43B;&#x43E;&#x439; 2"><g id="&#x421;&#x43B;&#x43E;&#x439;_1-2" data-name="&#x421;&#x43B;&#x43E;&#x439; 1"><path class="cls-1" d="M7,0,0,7.2V22.1H13.92V7.2Zm6,21.1H1V7.61L7,1.44l6,6.17Z"/></g></g></symbol><symbol id="i-up_down" viewBox="0 0 51.98 75.17"><title>i-up_down</title><g id="&#x421;&#x43B;&#x43E;&#x439;_2" data-name="&#x421;&#x43B;&#x43E;&#x439; 2"><g id="&#x421;&#x43B;&#x43E;&#x439;_1-2" data-name="&#x421;&#x43B;&#x43E;&#x439; 1"><path d="M6.85,28.83,26,9.68,45.14,28.83a4,4,0,1,0,5.67-5.67l-22-22a4,4,0,0,0-5.68,0l-22,22a4,4,0,0,0,5.67,5.68ZM45.13,46.34,26,65.49,6.84,46.34A4,4,0,0,0,1.17,52l22,22a4,4,0,0,0,5.68,0l22-22a4,4,0,1,0-5.67-5.68Z"/></g></g></symbol></svg>