<?xml version="1.0" encoding="UTF-8" standalone="no"?>
<svg width="22px" height="14px" viewBox="0 0 22 14" version="1.1" xmlns="http://www.w3.org/2000/svg" xmlns:xlink="http://www.w3.org/1999/xlink">
    <!-- Generator: sketchtool 41.2 (35397) - http://www.bohemiancoding.com/sketch -->
    <title>C5D0FDE5-FF27-4B6E-A4D9-D77DFBE3CB8D</title>
    <desc>Created with sketchtool.</desc>
    <defs>
        <polygon id="path-1" points="20.3425764 13.9556216 0 13.9556216 0 8.0436942e-05 20.3425764 8.0436942e-05 20.3425764 13.9556216"></polygon>
    </defs>
    <g id="Page-2" stroke="none" stroke-width="1" fill="none" fill-rule="evenodd">
        <g id="03_2_Mobile-Гарант-final" transform="translate(-24.000000, -2218.000000)">
            <g id="Group-2" transform="translate(20.000000, 2210.000000)">
                <g id="Page-1-Copy-4" transform="translate(4.736842, 7.894737)">
                    <mask id="mask-2" fill="white">
                        <use xlink:href="#path-1"></use>
                    </mask>
                    <g id="Clip-2"></g>
                    <path d="M19.2618947,0.000857994041 C18.9916749,0.0097060576 18.7352258,0.126875869 18.5473711,0.327700099 L7.77261426,11.4462304 L1.74801066,6.41892155 C1.32787075,6.0151281 0.670249167,6.03925919 0.278950033,6.47254618 C-0.112349101,6.90610129 -0.089224517,7.58472095 0.33091539,7.9885144 C0.367810793,8.02417478 0.407304464,8.0568858 0.448876749,8.08637934 L7.20437308,13.7169652 C7.61775749,14.0620397 8.21665823,14.0295968 8.59288741,13.6416226 L20.0252658,1.84420457 C20.4381306,1.43263555 20.449563,0.753747766 20.0509887,0.327431976 C19.844946,0.107571003 19.5580973,-0.0112075472 19.2618947,0.000857994041" id="Fill-1" fill="#FFFFFF" mask="url(#mask-2)"></path>
                </g>
            </g>
        </g>
    </g>
</svg>