<?xml version="1.0" encoding="UTF-8" standalone="no"?>
<svg width="10px" height="13px" viewBox="0 0 10 13" version="1.1" xmlns="http://www.w3.org/2000/svg" xmlns:xlink="http://www.w3.org/1999/xlink">
    <!-- Generator: sketchtool 41.2 (35397) - http://www.bohemiancoding.com/sketch -->
    <title>9D1A0734-9EF6-4F9F-ABAE-E1FDDB647ED6</title>
    <desc>Created with sketchtool.</desc>
    <defs></defs>
    <g id="Page-2" stroke="none" stroke-width="1" fill="none" fill-rule="evenodd">
        <g id="03_2_Mobile-Гарант-final" transform="translate(-116.000000, -2158.000000)" fill="#00B1EB">
            <path d="M120.7,2163.6 C119.9,2163.6 119.3,2163 119.3,2162.2 C119.3,2161.4 119.9,2160.8 120.7,2160.8 C121.5,2160.8 122.1,2161.4 122.1,2162.2 C122.1,2163 121.5,2163.6 120.7,2163.6 M120.7,2158 C116.9,2158 116,2158.9 116,2162.7 C116,2166 119.7,2170 120.5,2170.9 C120.6,2171 120.8,2171 120.9,2170.9 C121.8,2170 125.4,2165.9 125.4,2162.7 C125.4,2158.9 124.5,2158 120.7,2158" id="Page-1"></path>
        </g>
    </g>
</svg>